<svg width="420" height="193" viewBox="0 0 420 193" fill="none" xmlns="http://www.w3.org/2000/svg">
<path fill-rule="evenodd" clip-rule="evenodd" d="M52.0789 45.0614V59.1431H85.3117C84.1852 67.0289 81.9321 72.6616 77.9892 76.6044C72.9198 81.6739 65.5973 86.7432 52.6422 86.7432C32.3645 86.7432 16.0298 70.4085 16.0298 50.1308C16.0298 29.8532 31.8013 13.5184 52.6422 13.5184C63.9075 13.5184 71.7933 18.0246 77.426 23.6573L87.0015 14.0817C78.5525 6.19595 67.8504 0 52.0789 0C23.9155 0 0.821533 22.5307 0.821533 50.6941C0.821533 78.8575 24.4788 101.388 52.0789 101.388C67.2871 101.388 78.5525 96.3188 87.5648 87.3065C96.5771 78.2942 99.3934 65.3391 99.3934 54.637C99.3934 51.2574 99.3934 48.4411 98.8301 46.188H52.0789V45.0614Z" fill="#4285F4"/>
<path fill-rule="evenodd" clip-rule="evenodd" d="M140.512 86.1808C130.373 86.1808 121.924 77.7318 121.924 66.4664C121.924 54.6378 130.373 46.7521 140.512 46.7521C150.651 46.7521 159.1 54.6378 159.1 66.4664C159.1 78.295 150.651 86.1808 140.512 86.1808ZM140.512 33.7969C122.487 33.7969 107.843 47.3153 107.843 66.4664C107.843 85.0543 122.487 99.136 140.512 99.136C158.537 99.136 173.182 85.0543 173.182 66.4664C173.745 47.3153 158.537 33.7969 140.512 33.7969Z" fill="#E94235"/>
<path fill-rule="evenodd" clip-rule="evenodd" d="M285.271 86.1808C275.132 86.1808 267.81 77.7318 267.81 66.4664C267.81 55.2011 275.132 46.752 285.271 46.752C294.847 46.752 302.732 55.2011 302.732 66.4664C302.732 77.7318 294.847 86.1808 285.271 86.1808ZM301.606 41.1194C297.663 37.1765 291.467 33.7969 284.144 33.7969C267.81 33.7969 253.728 47.8786 253.728 66.4664C253.728 85.0543 267.81 99.136 284.144 99.136C292.03 99.136 298.226 95.7563 301.606 91.8135H302.169V96.3196C302.169 108.712 295.41 115.471 284.708 115.471C275.695 115.471 270.626 109.275 268.373 103.642L255.981 108.711C259.361 117.161 268.936 127.863 284.708 127.863C301.606 127.863 315.687 117.724 315.687 93.5033V35.4867H302.169V41.1194H301.606Z" fill="#4285F4"/>
<path fill-rule="evenodd" clip-rule="evenodd" d="M213.737 86.1808C203.598 86.1808 195.149 77.7318 195.149 66.4664C195.149 54.6378 203.598 46.7521 213.737 46.7521C223.875 46.7521 232.324 54.6378 232.324 66.4664C232.324 78.295 223.875 86.1808 213.737 86.1808ZM213.737 33.7969C195.712 33.7969 181.067 47.3153 181.067 66.4664C181.067 85.0543 195.712 99.136 213.737 99.136C231.761 99.136 246.406 85.0543 246.406 66.4664C246.969 47.3153 231.761 33.7969 213.737 33.7969Z" fill="#FBBC04"/>
<path fill-rule="evenodd" clip-rule="evenodd" d="M326.39 99.1352H340.472V0H326.39V99.1352Z" fill="#34A853"/>
<path fill-rule="evenodd" clip-rule="evenodd" d="M383.281 46.1847C388.913 46.1847 393.983 49.001 395.673 53.5071L366.383 65.899C366.383 51.8173 375.958 46.1847 383.281 46.1847ZM384.407 86.1767C377.085 86.1767 372.015 82.797 368.636 76.0378L412.571 58.0133L410.881 54.0704C408.064 46.7479 399.615 33.2295 382.717 33.2295C365.819 33.2295 351.738 46.7479 351.738 65.899C351.738 84.4869 365.819 98.5685 384.407 98.5685C399.615 98.5685 408.064 89.5563 411.444 83.9236L400.179 76.6011C396.799 82.7971 391.73 86.1767 384.407 86.1767Z" fill="#E94235"/>
<path d="M15.3325 192.751C13.1421 192.751 11.2256 192.203 9.03521 191.382C7.11865 190.56 5.20209 189.192 3.55933 187.549C1.91657 185.906 0.821382 183.716 0 180.978L4.9283 179.061C5.47589 181.525 6.84486 183.716 8.76142 185.358C10.678 187.001 12.8683 187.823 15.3325 187.823C16.9752 187.823 18.3442 187.549 19.7132 187.001C21.0821 186.454 22.1773 185.632 22.9987 184.537C23.8201 183.442 24.3677 182.073 24.3677 180.43C24.3677 178.24 23.5463 176.597 21.9035 175.502C20.2608 174.133 18.0704 173.038 14.7849 171.943L12.0469 170.847C10.4042 170.3 8.76142 169.478 7.11866 168.657C5.4759 167.836 4.10693 166.467 3.01175 165.098C1.91657 163.455 1.36897 161.538 1.36897 159.348C1.36897 157.158 1.91657 155.241 3.01175 153.598C4.10693 151.956 5.74968 150.587 7.66624 149.491C9.5828 148.396 11.7731 147.849 14.5111 147.849C17.249 147.849 19.4394 148.396 21.3559 149.491C23.2725 150.587 24.6415 151.682 25.7366 153.051C26.8318 154.42 27.6532 155.515 27.927 156.61L23.2725 158.527C22.9987 157.705 22.4511 156.884 21.9035 156.062C21.3559 155.241 20.2608 154.42 19.1656 153.872C18.0704 153.325 16.7014 152.777 14.7849 152.777C13.4159 152.777 12.0469 153.051 10.678 153.598C9.58279 154.146 8.48762 154.967 7.66624 156.062C6.84486 157.158 6.57106 158.253 6.57106 159.348C6.57106 161.265 7.39245 162.634 8.76142 163.729C10.1304 164.824 12.0469 165.645 14.5111 166.467L17.249 167.562C18.618 168.109 19.7132 168.657 21.0821 169.205C22.4511 169.752 23.8201 170.574 24.9153 171.669C26.0104 172.764 27.1056 173.859 27.6532 175.502C28.4746 176.871 28.7484 178.787 28.7484 180.704C28.7484 182.894 28.2008 184.811 27.3794 186.454C26.558 188.096 25.4628 189.192 24.0939 190.287C22.7249 191.382 21.0822 191.929 19.4394 192.477C18.618 192.477 16.9752 192.751 15.3325 192.751ZM49.8305 192.751C46.8188 192.751 44.0808 191.929 41.8905 190.56C39.7001 189.192 37.7836 187.275 36.4146 184.811C35.0456 182.347 34.4981 179.609 34.4981 176.323C34.4981 173.311 35.0456 170.574 36.4146 168.109C37.7836 165.645 39.4263 163.729 41.6167 162.086C43.807 160.443 46.545 159.896 49.5567 159.896C52.5685 159.896 55.3064 160.443 57.4967 161.812C59.6871 163.181 61.3299 165.098 62.425 167.288C63.5202 169.752 64.3416 172.49 64.3416 175.502C64.3416 175.776 64.3416 176.049 64.3416 176.323C64.3416 176.597 64.3416 176.871 64.3416 177.145H39.9739C40.2477 179.609 40.7953 181.525 41.6167 183.168C42.7119 184.811 44.0808 185.906 45.4498 186.727C47.0926 187.549 48.4615 187.823 50.1043 187.823C52.2947 187.823 54.2112 187.275 55.5802 186.18C56.9492 185.085 58.3181 183.716 59.1395 182.073L63.5202 184.263C62.425 186.727 60.5085 188.644 58.3181 190.013C55.854 191.929 53.116 192.751 49.8305 192.751ZM49.2829 164.55C46.8188 164.55 44.6284 165.371 42.9856 167.014C41.3429 168.657 40.2477 170.574 39.7001 173.038H58.3181C58.3181 171.942 58.0443 170.574 57.223 169.478C56.6754 168.109 55.5802 167.014 54.2112 166.193C53.3898 165.098 51.4733 164.55 49.2829 164.55ZM80.2216 192.751C78.0313 192.751 75.841 192.203 74.1982 191.382C72.5554 190.56 71.1865 189.192 70.0913 187.823C68.9961 186.18 68.7223 184.537 68.7223 182.62C68.7223 180.43 69.2699 178.514 70.365 176.871C71.4602 175.228 73.103 174.133 75.0196 173.311C76.9361 172.49 79.1265 172.216 81.5906 172.216C83.5072 172.216 85.4237 172.49 87.0665 172.764C88.7093 173.038 89.8044 173.585 90.352 174.133V172.216C90.352 169.752 89.5306 168.109 87.8879 166.74C86.2451 165.371 84.3286 164.824 81.8644 164.824C80.2217 164.824 78.5789 165.098 77.2099 165.919C75.8409 166.74 74.7458 167.562 73.6506 168.931L69.8175 165.919C70.9126 164.002 72.5554 162.634 74.7458 161.538C76.9361 160.443 79.1265 159.896 81.8644 159.896C85.9713 159.896 89.2568 160.991 91.721 163.181C94.1851 165.371 95.2803 168.383 95.2803 172.216V191.656H90.352V187.275H90.0782C89.2569 188.644 87.8879 190.013 86.2451 191.108C84.6023 192.203 82.412 192.751 80.2216 192.751ZM80.4955 188.096C82.1382 188.096 83.781 187.549 85.4237 186.727C86.7927 185.906 88.1617 184.537 88.983 183.168C89.8044 181.799 90.352 180.156 90.352 178.24C89.5306 177.692 88.1617 177.145 86.7927 176.597C85.4237 176.323 84.0548 176.049 82.1382 176.049C79.1265 176.049 76.9361 176.597 75.5672 177.966C74.1982 179.061 73.6506 180.704 73.6506 182.347C73.6506 183.989 74.1982 185.358 75.5672 186.454C76.9361 187.549 78.5789 188.096 80.4955 188.096ZM102.399 191.656V160.991H107.327V165.919H107.601C107.875 164.824 108.696 163.729 109.518 162.907C110.613 162.086 111.434 161.265 112.803 160.991C114.172 160.443 115.267 160.169 116.362 160.169C117.184 160.169 118.005 160.169 118.553 160.443C119.1 160.443 119.648 160.717 119.922 160.991V166.467C118.553 165.919 117.184 165.371 115.541 165.371C114.172 165.371 112.803 165.919 111.434 166.74C110.065 167.562 109.244 168.657 108.422 170.026C107.601 171.395 107.327 173.038 107.327 174.68V191.929H102.399V191.656ZM136.897 192.751C133.885 192.751 131.147 191.929 128.957 190.56C126.493 189.192 124.85 187.275 123.481 184.811C122.112 182.347 121.565 179.609 121.565 176.323C121.565 173.311 122.112 170.3 123.481 167.836C124.85 165.371 126.767 163.455 128.957 162.086C131.421 160.717 133.885 159.896 136.897 159.896C140.456 159.896 143.194 160.717 145.385 162.36C147.575 164.002 149.218 165.919 150.039 168.383L145.385 170.3C144.563 168.383 143.468 167.014 141.825 165.919C140.456 164.824 138.54 164.55 136.349 164.55C134.433 164.55 132.79 165.098 131.421 165.919C129.778 167.014 128.683 168.383 127.588 170.026C126.493 171.669 126.219 173.859 126.219 176.049C126.219 178.514 126.767 180.43 127.588 182.073C128.683 183.716 129.778 185.085 131.421 186.18C133.064 187.275 134.707 187.549 136.349 187.549C138.54 187.549 140.456 187.001 141.825 185.906C143.468 184.811 144.563 183.442 145.385 181.525L150.039 183.442C148.944 185.906 147.301 187.823 145.111 189.465C143.194 191.929 140.456 192.751 136.897 192.751ZM156.063 191.656V148.396H161.265V160.991L160.991 165.098H161.265C162.086 163.455 163.455 162.36 165.098 161.265C167.014 160.169 168.931 159.622 171.121 159.622C174.954 159.622 177.966 160.717 179.883 163.181C181.799 165.371 182.621 168.383 182.621 171.669V191.382H177.419V172.49C177.419 169.478 176.597 167.562 175.228 166.193C173.859 164.824 171.943 164.276 170.026 164.276C168.383 164.276 166.741 164.824 165.645 165.645C164.55 166.467 163.181 167.836 162.634 169.478C161.812 171.121 161.538 172.49 161.538 174.133V191.108H156.063V191.656ZM223.963 192.751C220.678 192.751 217.94 192.203 215.202 191.108C212.464 190.013 210.274 188.37 208.083 186.454C206.167 184.537 204.524 182.073 203.429 179.335C202.334 176.597 201.786 173.585 201.786 170.3C201.786 167.014 202.334 164.002 203.429 161.265C204.524 158.527 206.167 156.062 208.083 154.146C210 152.229 212.464 150.587 215.202 149.491C217.94 148.396 220.952 147.849 223.963 147.849C227.249 147.849 230.261 148.396 232.999 149.765C235.737 150.86 237.927 152.777 239.844 154.967L236.284 158.527C232.999 154.693 229.166 152.777 224.237 152.777C221.226 152.777 218.214 153.598 215.75 154.967C213.012 156.336 211.095 158.527 209.452 160.991C207.81 163.729 206.988 166.74 206.988 170.3C206.988 173.859 207.81 176.871 209.452 179.609C211.095 182.347 213.012 184.263 215.75 185.632C218.488 187.001 221.226 187.823 224.237 187.823C226.975 187.823 229.439 187.275 231.63 186.18C233.82 185.085 235.737 183.442 237.379 181.525L241.213 185.085C239.296 187.275 236.832 189.192 234.094 190.56C230.808 191.929 227.523 192.751 223.963 192.751ZM260.378 192.751C257.366 192.751 254.628 191.929 252.164 190.56C249.7 189.192 248.057 187.275 246.688 184.811C245.319 182.347 244.772 179.609 244.772 176.597C244.772 173.585 245.319 170.847 246.688 168.383C248.057 165.919 249.974 164.002 252.164 162.36C254.628 160.991 257.366 160.169 260.378 160.169C263.39 160.169 266.128 160.991 268.592 162.36C271.056 163.729 272.699 165.645 274.068 168.383C275.437 170.847 275.984 173.585 275.984 176.597C275.984 179.609 275.437 182.347 274.068 184.811C272.699 187.275 270.782 189.192 268.592 190.56C266.128 191.929 263.39 192.751 260.378 192.751ZM260.378 188.096C262.295 188.096 263.937 187.549 265.58 186.727C267.223 185.906 268.592 184.537 269.687 182.62C270.782 180.978 271.33 178.787 271.33 176.323C271.33 173.859 270.782 171.669 269.687 170.026C268.592 168.383 267.497 167.014 265.58 165.919C263.937 165.098 262.295 164.55 260.378 164.55C258.462 164.55 256.819 165.098 255.176 165.919C253.533 166.74 252.164 168.109 251.069 170.026C249.974 171.669 249.426 173.859 249.426 176.323C249.426 178.787 249.974 180.978 251.069 182.62C252.164 184.263 253.533 185.632 255.176 186.727C256.819 187.549 258.462 188.096 260.378 188.096ZM281.46 191.656V160.991H286.389V165.645H286.662C287.484 164.276 288.853 162.907 290.495 161.812C292.412 160.717 294.329 160.169 296.519 160.169C300.352 160.169 303.09 161.265 305.007 163.455C306.923 165.645 308.018 168.383 308.018 172.216V191.929H302.816V173.038C302.816 170.026 301.995 168.109 300.626 166.74C299.257 165.371 297.34 164.824 295.15 164.824C293.507 164.824 291.864 165.371 290.769 166.193C289.4 167.014 288.579 168.383 287.758 169.752C286.936 171.121 286.662 172.764 286.662 174.407V191.656H281.46ZM325.815 192.751C322.256 192.751 319.518 191.929 317.327 190.287C315.137 188.644 313.768 186.727 312.947 184.537L317.601 182.62C318.422 184.537 319.518 185.906 321.16 187.001C322.803 188.096 324.446 188.37 326.362 188.37C328.279 188.37 329.922 188.096 331.017 187.275C332.386 186.454 332.934 185.358 332.934 183.989C332.934 182.62 332.386 181.525 331.017 180.704C329.922 179.883 328.279 179.335 326.089 178.787L322.256 177.692C320.887 177.418 319.518 176.597 318.149 176.049C316.78 175.228 315.958 174.407 315.137 173.311C314.316 172.216 314.042 170.847 314.042 169.205C314.042 167.288 314.589 165.645 315.684 164.55C316.78 163.181 318.149 162.086 320.065 161.538C321.708 160.717 323.624 160.443 325.815 160.443C328.553 160.443 330.743 160.991 332.934 162.086C335.124 163.181 336.493 164.824 337.588 167.014L333.207 168.931C332.386 167.288 331.291 166.467 330.196 165.645C328.827 165.098 327.458 164.824 325.815 164.824C324.172 164.824 322.529 165.098 321.434 165.919C320.065 166.74 319.518 167.562 319.518 168.931C319.518 170.3 320.065 171.121 321.16 171.943C322.256 172.49 323.351 173.038 324.993 173.585L329.374 174.68C335.398 176.323 338.409 179.335 338.409 183.716C338.409 185.632 337.862 187.275 336.767 188.644C335.671 190.013 334.302 191.108 332.386 191.929C329.922 192.203 328.005 192.751 325.815 192.751ZM357.849 192.751C354.837 192.751 352.099 191.929 349.635 190.56C347.171 189.192 345.528 187.275 344.159 184.811C342.79 182.347 342.242 179.609 342.242 176.597C342.242 173.585 342.79 170.847 344.159 168.383C345.528 165.919 347.445 164.002 349.635 162.36C352.099 160.991 354.837 160.169 357.849 160.169C360.86 160.169 363.598 160.991 366.063 162.36C368.527 163.729 370.169 165.645 371.538 168.383C372.907 170.847 373.455 173.585 373.455 176.597C373.455 179.609 372.907 182.347 371.538 184.811C370.169 187.275 368.253 189.192 366.063 190.56C363.872 191.929 361.134 192.751 357.849 192.751ZM357.849 188.096C359.765 188.096 361.408 187.549 363.051 186.727C364.694 185.906 366.063 184.537 367.158 182.62C368.253 180.978 368.8 178.787 368.8 176.323C368.8 173.859 368.253 171.669 367.158 170.026C366.063 168.383 364.694 167.014 363.051 165.919C361.408 165.098 359.765 164.55 357.849 164.55C355.932 164.55 354.289 165.098 352.647 165.919C351.004 166.74 349.635 168.109 348.54 170.026C347.445 171.669 347.171 173.859 347.171 176.323C347.171 178.787 347.718 180.978 348.54 182.62C349.635 184.263 351.004 185.632 352.647 186.727C354.289 187.549 356.206 188.096 357.849 188.096ZM379.478 191.656V148.396H384.681V191.656H379.478ZM405.489 192.751C402.477 192.751 399.739 191.929 397.549 190.56C395.358 189.192 393.442 187.275 392.073 184.811C390.704 182.347 390.156 179.609 390.156 176.323C390.156 173.311 390.704 170.574 392.073 168.109C393.442 165.645 395.085 163.729 397.275 162.086C399.465 160.443 402.203 159.896 405.215 159.896C408.227 159.896 410.965 160.443 413.155 161.812C415.345 163.181 416.988 165.098 418.083 167.288C419.179 169.752 420 172.49 420 175.502C420 175.776 420 176.049 420 176.323C420 176.597 420 176.871 420 177.145H395.632C395.906 179.609 396.454 181.525 397.275 183.168C398.37 184.811 399.739 185.906 401.108 186.727C402.751 187.549 404.12 187.823 405.763 187.823C407.953 187.823 409.87 187.275 411.239 186.18C412.608 185.085 413.977 183.716 414.798 182.073L419.179 184.263C418.083 186.727 416.167 188.644 413.977 190.013C411.512 191.929 408.774 192.751 405.489 192.751ZM404.941 164.55C402.477 164.55 400.287 165.371 398.644 167.014C397.001 168.657 395.906 170.574 395.359 173.038H413.977C413.977 171.942 413.703 170.574 412.881 169.478C412.334 168.109 411.239 167.014 409.87 166.193C409.048 165.098 407.405 164.55 404.941 164.55Z" fill="#5E5E5E"/>
</svg>
